<?xml version="1.0" encoding="utf-8"?>
<!-- Generator: Adobe Illustrator 26.0.2, SVG Export Plug-In . SVG Version: 6.00 Build 0)  -->
<svg version="1.1" id="Layer_1" xmlns="http://www.w3.org/2000/svg" xmlns:xlink="http://www.w3.org/1999/xlink" x="0px" y="0px"
	 viewBox="0 0 4000 4000" style="enable-background:new 0 0 4000 4000;" xml:space="preserve">
<style type="text/css">
	.st0{fill:#007BC1;}
	.st1{font-family:'GlacialIndifference-Bold';}
	.st2{font-size:278.557px;}
	.st3{font-family:'GlacialIndifference-Regular';}
</style>
<g>
	<g>
		<path class="st0" d="M391.6,1611.57c0.09,2.15,0.21,4.54,0.34,7.12c0.83-0.96,1.68-1.91,2.53-2.85
			C393.64,1613.61,392.68,1612.23,391.6,1611.57z M391.6,1611.57c0.09,2.15,0.21,4.54,0.34,7.12c0.83-0.96,1.68-1.91,2.53-2.85
			C393.64,1613.61,392.68,1612.23,391.6,1611.57z M391.6,1611.57c0.09,2.15,0.21,4.54,0.34,7.12c0.83-0.96,1.68-1.91,2.53-2.85
			C393.64,1613.61,392.68,1612.23,391.6,1611.57z M476.74,2429.79c-2.61-1.94-5.2-3.9-7.78-5.9c0.08,0.22,0.24,0.48,0.47,0.77
			c0.72,0.93,1.55,1.89,2.47,2.87c0.03,0.03,0.06,0.07,0.09,0.1c0.64,0.65,1.09,1.11,1.34,1.36c0.06,0.06,0.11,0.12,0.17,0.17
			c0.02,0.02,0.03,0.03,0.03,0.03c9.21,9.03,26.4,20.22,51.9,32.94C508.61,2452.23,492.35,2441.42,476.74,2429.79z M813.02,2536.28
			C813.01,2536.28,813.01,2536.28,813.02,2536.28c-4.64,2.61-8.53,4.48-10.33,4.66c-0.26,0.03-0.54,0.03-0.82,0.02
			c-2.99-0.76-5.86-1.86-8.47-3.07c-0.87-0.47-1.7-0.97-2.49-1.45c-0.07,0-0.14-0.01-0.21-0.01h-0.27c-0.01,0-0.01,0-0.01,0
			c-0.56-0.01-1.11-0.02-1.66-0.03c-4.99-0.08-9.97-0.24-14.93-0.46h-0.01c-38.55-1.71-76.06-7.52-112.14-16.99
			c3.51,5.25,7.82,10.24,13.04,14.19c10.65,8.07,59.17,9.78,95.34,9.78c10.25,0.01,19.52-0.13,26.65-0.29
			c1.41,0.66,2.87,1.08,4.3,1.08c3.73,0,12.64,0.89,25.58,1.06c0.01,0,0.01,0,0.01,0c12.15,0.16,27.86-0.31,46.18-2.73
			c12.79-1.69,22.14-7.89,29.09-15.66C873,2532.08,843.31,2535.45,813.02,2536.28z M476.74,2429.79c-2.61-1.94-5.2-3.9-7.78-5.9
			c0.08,0.22,0.24,0.48,0.47,0.77c0.72,0.93,1.55,1.89,2.47,2.87c0.03,0.03,0.06,0.07,0.09,0.1c0.64,0.65,1.09,1.11,1.34,1.36
			c0.06,0.06,0.11,0.12,0.17,0.17c0.02,0.02,0.03,0.03,0.03,0.03c9.21,9.03,26.4,20.22,51.9,32.94
			C508.61,2452.23,492.35,2441.42,476.74,2429.79z M813.02,2536.28C813.01,2536.28,813.01,2536.28,813.02,2536.28
			c-4.64,2.61-8.53,4.48-10.33,4.66c-0.26,0.03-0.54,0.03-0.82,0.02c-2.99-0.76-5.86-1.86-8.47-3.07c-0.87-0.47-1.7-0.97-2.49-1.45
			c-0.07,0-0.14-0.01-0.21-0.01h-0.27c-0.01,0-0.01,0-0.01,0c-0.56-0.01-1.11-0.02-1.66-0.03c-4.99-0.08-9.97-0.24-14.93-0.46h-0.01
			c-38.55-1.71-76.06-7.52-112.14-16.99c3.51,5.25,7.82,10.24,13.04,14.19c10.65,8.07,59.17,9.78,95.34,9.78
			c10.25,0.01,19.52-0.13,26.65-0.29c1.41,0.66,2.87,1.08,4.3,1.08c3.73,0,12.64,0.89,25.58,1.06c0.01,0,0.01,0,0.01,0
			c12.15,0.16,27.86-0.31,46.18-2.73c12.79-1.69,22.14-7.89,29.09-15.66C873,2532.08,843.31,2535.45,813.02,2536.28z
			 M1341.24,2059.13c2.23-36.16,12.24-76.78,5.01-126.85s-18.36-106.26-25.04-123.51c-6.4-16.55-29.7-83.27-36.99-101.93
			c-0.01-0.01-0.01-0.01-0.01-0.02c-17.61-31.59-38.18-61.34-61.56-89.03c0,0,0,0-0.01-0.01c-9.5-11.24-19.46-22.15-29.87-32.71
			c-51.27-51.97-110.98-92.77-177.46-121.28c-68.84-29.51-141.97-44.48-217.35-44.48s-148.51,14.97-217.35,44.48
			c-52.35,22.45-100.5,52.52-143.64,89.66c-7.36,6.34-14.57,12.87-21.63,19.62c-1.55,1.47-3.08,2.96-4.61,4.46
			c-2.55,2.49-5.08,5-7.59,7.54c-0.85,0.86-1.69,1.72-2.53,2.58c-3,3.08-5.97,6.19-8.9,9.34c-10.45,11.22-20.41,22.81-29.87,34.77
			c-13.79,17.43-26.5,35.61-38.11,54.51c-12.57,20.45-23.84,41.74-33.78,63.79c-11.01,30.15-20.52,64.15-24.71,85.41
			c-7.79,39.5-22.25,77.89-17.25,120.17c2.01,17.01,4.3,32.03,6.35,45.44c-0.15-5.3-0.23-10.62-0.23-15.95
			c0-87.27,20.1-169.86,55.86-243.28c0.69-1.42,1.39-2.84,2.09-4.25c16.97-34.1,37.33-66.18,60.63-95.79
			c6.21-7.89,12.62-15.6,19.24-23.13c0.83-0.96,1.68-1.91,2.53-2.85c1.9-2.13,3.81-4.25,5.75-6.35
			c9.56-10.4,19.52-20.43,29.84-30.06c2.2-2.06,4.42-4.09,6.67-6.11c8.15-7.36,16.51-14.46,25.08-21.31
			c45.73-36.56,97.37-65.85,153.2-86.12c57.19-20.78,118.79-32.1,182.95-32.1c102.64,0,198.73,28.98,280.73,79.28
			c0.01,0,0.01,0,0.02,0.01c12.87,7.89,25.38,16.32,37.53,25.24c136.56,100.26,225.56,263.2,225.56,446.82
			c0,28.24-2.1,55.99-6.16,83.1c0,0,0,0,0,0.01c-3.15,21.06-7.49,41.73-12.94,61.94v0.01c-8.98,33.37-20.99,65.48-35.7,96.03
			c17.7-33.6,36.14-74.94,39.22-84.19c3.89-11.68,15.38-37.94,14.09-70.16v-0.02C1340.66,2067.86,1340.96,2063.64,1341.24,2059.13z
			 M1219.73,2332.84c6.76-7.16,13.25-14.8,16.91-21.11c1.15-1.98,2.24-3.86,3.32-5.69
			C1233.49,2315.18,1226.74,2324.12,1219.73,2332.84z M1187.75,2369.26c-0.27,0.28-0.55,0.57-0.82,0.86c0,0.01,0,0.01-0.01,0.01
			c-4.88,5.06-9.86,10.03-14.92,14.9c-4.11,3.96-8.28,7.84-12.51,11.66c-7.41,6.7-15.01,13.2-22.77,19.48
			c0.93-0.34,1.79-0.66,2.56-0.96c5.56-2.23,22.25-11.68,28.93-17.25c6.68-5.56,8.35-10.01,12.74-18.1c0,0,0-0.01,0.01-0.01
			c0-0.01,0.01-0.01,0.01-0.01c3.99-4.88,8.84-11.07,13.1-17.27C1191.98,2364.81,1189.87,2367.04,1187.75,2369.26z M1000.63,2496.78
			c11.08,1.04,23.96-0.13,36.84-2.02c2.03-0.29,3.97-0.71,5.81-1.21c0.01,0,0.01-0.01,0.02-0.01c5.64-2.79,11.22-5.68,16.75-8.66
			h0.01c7.81-6.44,12.2-14.44,14.14-19.61c1.11-2.97,2.16-5.32,3.24-7.3C1053,2472.87,1027.34,2485.87,1000.63,2496.78z
			 M813.02,2536.28C813.01,2536.28,813.01,2536.28,813.02,2536.28c-4.64,2.61-8.53,4.48-10.33,4.66c-0.26,0.03-0.54,0.03-0.82,0.02
			c-2.99-0.76-5.86-1.86-8.47-3.07c-0.87-0.47-1.7-0.97-2.49-1.45c-0.07,0-0.14-0.01-0.21-0.01h-0.27c-0.01,0-0.01,0-0.01,0
			c-0.56-0.01-1.11-0.02-1.66-0.03c-4.99-0.08-9.97-0.24-14.93-0.46h-0.01c-38.55-1.71-76.06-7.52-112.14-16.99
			c3.51,5.25,7.82,10.24,13.04,14.19c10.65,8.07,59.17,9.78,95.34,9.78c10.25,0.01,19.52-0.13,26.65-0.29
			c1.41,0.66,2.87,1.08,4.3,1.08c3.73,0,12.64,0.89,25.58,1.06c0.01,0,0.01,0,0.01,0c12.15,0.16,27.86-0.31,46.18-2.73
			c12.79-1.69,22.14-7.89,29.09-15.66C873,2532.08,843.31,2535.45,813.02,2536.28z M476.74,2429.79c-2.61-1.94-5.2-3.9-7.78-5.9
			c0.08,0.22,0.24,0.48,0.47,0.77c0.72,0.93,1.55,1.89,2.47,2.87c0.03,0.03,0.06,0.07,0.09,0.1c0.64,0.65,1.09,1.11,1.34,1.36
			c0.06,0.06,0.11,0.12,0.17,0.17c0.02,0.02,0.03,0.03,0.03,0.03c9.21,9.03,26.4,20.22,51.9,32.94
			C508.61,2452.23,492.35,2441.42,476.74,2429.79z M813.02,2536.28C813.01,2536.28,813.01,2536.28,813.02,2536.28
			c-4.64,2.61-8.53,4.48-10.33,4.66c-0.26,0.03-0.54,0.03-0.82,0.02c-2.99-0.76-5.86-1.86-8.47-3.07c-0.87-0.47-1.7-0.97-2.49-1.45
			c-0.07,0-0.14-0.01-0.21-0.01h-0.27c-0.01,0-0.01,0-0.01,0c-0.56-0.01-1.11-0.02-1.66-0.03c-4.99-0.08-9.97-0.24-14.93-0.46h-0.01
			c-38.55-1.71-76.06-7.52-112.14-16.99c3.51,5.25,7.82,10.24,13.04,14.19c10.65,8.07,59.17,9.78,95.34,9.78
			c10.25,0.01,19.52-0.13,26.65-0.29c1.41,0.66,2.87,1.08,4.3,1.08c3.73,0,12.64,0.89,25.58,1.06c0.01,0,0.01,0,0.01,0
			c12.15,0.16,27.86-0.31,46.18-2.73c12.79-1.69,22.14-7.89,29.09-15.66C873,2532.08,843.31,2535.45,813.02,2536.28z
			 M476.74,2429.79c-2.61-1.94-5.2-3.9-7.78-5.9c0.08,0.22,0.24,0.48,0.47,0.77c0.72,0.93,1.55,1.89,2.47,2.87
			c0.03,0.03,0.06,0.07,0.09,0.1c0.64,0.65,1.09,1.11,1.34,1.36c0.06,0.06,0.11,0.12,0.17,0.17c0.02,0.02,0.03,0.03,0.03,0.03
			c9.21,9.03,26.4,20.22,51.9,32.94C508.61,2452.23,492.35,2441.42,476.74,2429.79z M813.02,2536.28
			C813.01,2536.28,813.01,2536.28,813.02,2536.28c-4.64,2.61-8.53,4.48-10.33,4.66c-0.26,0.03-0.54,0.03-0.82,0.02
			c-2.99-0.76-5.86-1.86-8.47-3.07c-0.87-0.47-1.7-0.97-2.49-1.45c-0.07,0-0.14-0.01-0.21-0.01h-0.27c-0.01,0-0.01,0-0.01,0
			c-0.56-0.01-1.11-0.02-1.66-0.03c-4.99-0.08-9.97-0.24-14.93-0.46h-0.01c-38.55-1.71-76.06-7.52-112.14-16.99
			c3.51,5.25,7.82,10.24,13.04,14.19c10.65,8.07,59.17,9.78,95.34,9.78l-0.01,0.01c0,0,42.61,4.02,56.54,1.85c0.01,0,0.01,0,0.01,0
			c12.15,0.16,27.86-0.31,46.18-2.73c12.79-1.69,22.14-7.89,29.09-15.66C873,2532.08,843.31,2535.45,813.02,2536.28z
			 M476.74,2429.79c-2.61-1.94-5.2-3.9-7.78-5.9h-0.01c-0.96-0.74-1.93-1.49-2.88-2.24c2.51,2.53,4.52,4.57,5.83,5.89
			c0.03,0.03,0.06,0.07,0.09,0.1c0.42,0.45,0.87,0.91,1.34,1.36c0.06,0.06,0.11,0.12,0.17,0.17c0.02,0.02,0.03,0.03,0.03,0.03
			c9.21,9.03,26.4,20.22,51.9,32.94C508.61,2452.23,492.35,2441.42,476.74,2429.79z M398.7,2359.14c1.72,2.54,4.31,5.25,7.34,7.89
			C403.57,2364.42,401.12,2361.79,398.7,2359.14z M391.6,1611.57c0.09,2.15,0.21,4.54,0.34,7.12c0.83-0.96,1.68-1.91,2.53-2.85
			C393.64,1613.61,392.68,1612.23,391.6,1611.57z M391.6,1611.57c0.09,2.15,0.21,4.54,0.34,7.12c0.83-0.96,1.68-1.91,2.53-2.85
			C393.64,1613.61,392.68,1612.23,391.6,1611.57z M391.6,1611.57c0.09,2.15,0.21,4.54,0.34,7.12c0.83-0.96,1.68-1.91,2.53-2.85
			C393.64,1613.61,392.68,1612.23,391.6,1611.57z"/>
	</g>
	<path class="st0" d="M835.7,1819.82c-0.03-0.01-0.05-0.01-0.08-0.02c-0.24-0.07-0.5-0.13-0.75-0.21c-0.16-0.04-0.31-0.08-0.46-0.13
		c-0.01,0-0.01-0.01-0.02-0.01c-17.86-5-16.79-12.14-18.44-16c-1.67-3.89,6.74-12.94,6.74-12.94s0.63-1.14,1.47-2.8
		c3.48-6.85,10.48-22.53-8.77-3.73c-5.41,5.29-11.86,7.3-18.67,7.15c-1.98-0.04-3.99-0.26-6.02-0.64c-0.09-0.02-0.15-0.03-0.17-0.03
		c-21.78-4.15-45.3-26.02-50.81-31.52c-7.79-7.79-74.55-77.33-74.55-77.33s-57.86-61.2-78.45-78.45
		c-12.78-10.72-18.7-13.06-21.35-13.29l-0.12-0.01c-1.52-0.1-1.9,0.51-1.9,0.51l-10.4-1.79l-0.04-0.01l-37.97-6.55
		c0,0-30.67-4.51-59.27-7.22c-6.57-0.62-13.02-1.15-18.97-1.5c-8.56-0.51-16.08-0.66-21.38-0.23c-1.55,1.47-3.08,2.96-4.61,4.46
		c-2.55,2.49-5.08,5-7.59,7.54c-0.85,0.86-1.69,1.72-2.53,2.58c-3,3.08-5.97,6.19-8.9,9.34c-0.07,1-0.15,1.95-0.26,2.83
		c-0.18,1.47-0.11,5.66,0.15,11.74c0.09,2.15,0.21,4.54,0.34,7.12c1.77,34.31,6.99,103.64,7.86,121.34
		c1.11,22.81,11.13,26.71,11.13,26.71l22.52,19.3l26.39,22.62l75.72,64.9c0,0,69.54,61.2,90.69,81.23
		c8.23,7.79,13.84,17.61,17.64,26.7c0,0,0.01,0.01,0.01,0.04c5.79,13.88,7.31,26.03,7.38,26.65c0,0.01,0,0.01,0.01,0.02l1.67,2.78
		l6.68-2.78c0,0-0.41-4.65-0.35-10.63v-0.02c0.07-8.05,0.97-18.5,4.8-23.29c6.68-8.35,11.13-18.92,13.35-38.39
		c2.23-19.47,30.6-56.19,30.6-56.19c30.6-38.39,61.2-43.4,79.56-50.63c14.26-5.62,37.58-2.84,47.29-1.32c0,0,0.03,0,0.08,0.01
		c2.74,0.43,4.37,0.76,4.37,0.76s0.06-0.02,0.16-0.05C840.95,1827.99,851.68,1824.4,835.7,1819.82z M511.63,1687.74
		c-5.56,5.56-13.35,14.47-21.14,15.02s-42.31,1.67-45.08,0c-2.77-1.67-8.33-0.56-8.33-8.9c0-8.35-2.78-18.93,0-19.2
		c2.78-0.27,26.71-1.39,32.83-5.28c0,0,21.7-13.91,25.04-25.59c3.34-11.68,5.01-18.36,5.01-21.14c0-2.78,4.45-2.78,7.23-2.78
		s14.47,8.35,14.47,13.91S517.19,1682.17,511.63,1687.74z"/>
	<path class="st0" d="M565.26,1589.87c-1.52-0.1-1.9,0.51-1.9,0.51l-10.4-1.79L565.26,1589.87z"/>
	<path class="st0" d="M790.54,1790.47c0.13,0.03,1.6,0.37,3.83,0.81C792.04,1791.22,790.68,1790.54,790.54,1790.47z"/>
	<path class="st0" d="M1116.24,1538.32c-2.7-5.52-10.82-13.06-26.84-23.23c-0.01,0-0.01,0-0.01-0.01c-2.17-1.37-4.47-2.79-6.94-4.27
		c-91.24-54.52-104.04-47.29-150.32-67.13c-46.28-19.84-128.98-16.88-137.32-16.88c-8.35,0-106.82,2.23-191.94,30.6
		c-85.12,28.37-135.2,75.11-153,87.35c-3.86,2.65-8.3,5.65-12.9,8.71c-7.36,6.34-14.57,12.87-21.63,19.62
		c-1.55,1.47-3.08,2.96-4.61,4.46l19.33,1.89l26.49,2.6c0,0-0.82-2.69-0.85-7.22c-0.05-5.46,1.05-13.58,6.11-22.81
		c1.67-3.05,3.78-6.24,6.43-9.48c17.25-21.14,114.05-76.22,136.31-77.89c3.91-0.29,7.38,0.2,10.47,1.25
		c14.53,4.9,20.52,21.89,22.35,26.02c2.23,5.01-5.56,35.05-3.34,57.31c1.85,18.49,26.35,42.35,41.61,54.36
		c3.11,2.45,5.84,4.41,7.91,5.72c0.75,0.48,1.56,0.95,2.43,1.4c13.17,6.89,38.86,10.33,66.01,2.5
		c28.93-8.35,44.51-53.41,47.29-58.97s8.35-43.95,2.78-54.52c-5.56-10.57-16.69-31.16-16.51-36.58c0.19-5.42,7.05-14.05,16.51-19.06
		c9.46-5.01,32.83-3.34,59.29-3.78c26.46-0.43,47.54,10.45,47.54,10.45c32.27,21.14,22.81,52.3,18.92,66.76
		s-32.83,58.97-45.07,68.43c-12.24,9.46-31.16,35.61-45.07,68.7c-13.91,33.1,0,76.51,0,76.51c1.67,34.49-3.34,21.14-19.47,43.4
		c-8.97,12.38-16.52,15.92-21.45,16.61c-0.87,0.13-1.66,0.16-2.36,0.14c7.59,1.54,23.97,4.36,26.29,0.63
		c0.8-1.29,1.9-2.72,3.51-4.19c4.49-4.1,12.98-8.5,30.18-10.96c23.37-3.34,40.06,3.89,50.07,7.23c10.01,3.34,7.79,4.45,48.4,1.67
		c40.61-2.78,43.4-27.26,55.08-42.84c11.68-15.58,21.7-21.7,28.37-26.15c6.68-4.45,20.59-4.45,26.15-10.01s-2.78-15.58-5.56-16.69
		c-2.78-1.11-6.68-3.89-4.45-10.57c2.23-6.68,11.13-11.13,15.02-19.65s0-7.61-2.78-8.17c-2.78-0.56-8.35-10.57-8.35-13.91
		s7.23-11.68,7.23-19.47c0-7.79-11.13-14.47-20.59-21.7s-22.25-6.12-41.17-8.9c-18.92-2.78,1.67-29.49,6.12-35.61
		c4.16-5.71,27.7-8.52,38.51-5.25c0,0,0.01,0,0.01,0.01c0.77,0.23,1.47,0.5,2.1,0.79
		C1055.83,1550.98,1126.7,1559.74,1116.24,1538.32z M963.39,1755.62c-8.9,7.22-27.82,15.01-39.5,13.34
		c-11.68-1.67-27.26-8.9-38.95-17.25c0,0-39.5-40.06-37.83-63.98s8.85-37.01,18.89-41.32c10.04-4.31,25.29-21.55,28.24-22.39
		c2.95-0.83,3.51,8.31,2.95,16.53c-0.56,8.23,7.79,14.35,12.24,24.92c4.45,10.57-1.11,16.21,4.45,24.51
		c5.56,8.31,26.15,29.45,37.83,34.46C963.39,1729.46,972.29,1748.4,963.39,1755.62z"/>
	
		<ellipse transform="matrix(0.8005 -0.5994 0.5994 0.8005 -795.1686 647.9732)" class="st0" cx="575.69" cy="1518.35" rx="26.71" ry="18.36"/>
	
		<ellipse transform="matrix(0.8005 -0.5994 0.5994 0.8005 -815.2954 675.4158)" class="st0" cx="606.85" cy="1562.31" rx="26.71" ry="18.36"/>
	
		<ellipse transform="matrix(0.7071 -0.7071 0.7071 0.7071 -955.2699 946.3478)" class="st0" cx="664.71" cy="1626.29" rx="26.71" ry="18.36"/>
	
		<ellipse transform="matrix(0.4096 -0.9122 0.9122 0.4096 -987.8775 1690.4591)" class="st0" cx="812.14" cy="1608.48" rx="18.36" ry="26.71"/>
	<ellipse class="st0" cx="849.98" cy="1540.61" rx="26.71" ry="18.36"/>
	
		<ellipse transform="matrix(0.9039 -0.4277 0.4277 0.9039 -550.1606 504.2258)" class="st0" cx="847.19" cy="1476.63" rx="26.71" ry="18.36"/>
	
		<ellipse transform="matrix(0.9347 -0.3554 0.3554 0.9347 -539.4969 378.1853)" class="st0" cx="759.65" cy="1657.57" rx="20.82" ry="30.29"/>
	<path class="st0" d="M1175.45,1687.49c0,0-0.04-0.07-0.13-0.21C1178.23,1688.6,1175.45,1687.49,1175.45,1687.49z"/>
	<path class="st0" d="M1341.24,2059.13c-0.28,4.5-0.58,8.72-0.93,12.72v0.02c-2.14,24.05-6.14,39.91-17.61,58.31v0.01
		c-1.94,3.12-4.09,6.3-6.49,9.61c-1.26,1.75-2.69,3.42-4.26,5.01c-21.84,22.33-70.74,31.27-84.76,56.19
		c-15.02,26.71-17.8,51.19-17.8,80.12c0,27.18-1.47,44.54-4.42,59c-1,1.08-1.77,1.84-2.25,2.2c-2.2,1.65-7.09,13.58-7.23,13.9
		c0.08-0.07,0.87-0.76,2.21-1.96c0.02-0.02,0.03-0.03,0.04-0.04c0.01-0.01,0.02-0.02,0.03-0.03c0.89-0.8,2.01-1.82,3.3-3.02
		c-1.87,3.58-4.31,7.47-6.98,11.35c-0.01,0.01-0.02,0.02-0.03,0.03c-4.26,6.2-9.1,12.39-13.1,17.27c0,0.01-0.01,0.01-0.01,0.01
		c-0.01,0-0.01,0.01-0.01,0.01c-4.73,5.79-8.28,9.76-8.28,9.76s-0.58-0.37-0.82-1.54c-0.14-0.7-0.15-1.69,0.16-3.05
		c0.37-1.59,1.18-3.7,2.75-6.46c0.01-0.01,0.01-0.01,0.01-0.01c0.01-0.01,0.01-0.01,0.01-0.01c2.11-3.72,5.61-8.62,11.25-15.07
		c1.99-2.27,3.71-4.61,5.19-6.97c13.08-20.85,7.99-44.4,6.49-50.89c-1.67-7.23-9.46-15.02-33.94-13.35
		c-13.04,0.89-27.19,12.99-37.56,24.1h-0.01c-5.22,5.6-9.48,10.94-12.17,14.48v0.01c-2,2.63-3.12,4.26-3.12,4.26
		s-2.48-0.62-3.93-2.62c-1.62-2.24-1.95-6.2,3.93-12.96c2.36-2.71,5.85-5.88,9.9-9.2c0.01,0,0.01-0.01,0.02-0.01
		c0.01-0.01,0.02-0.02,0.03-0.02c15.04-12.3,37.82-26.62,39.57-27.49c2.23-1.11,11.68-6.12,30.04-25.04
		c18.36-18.92-14.47-68.99-25.59-81.23s-58.42-35.61-67.88-39.5s7.79-28.37,17.8-41.17c10.01-12.8,25.59,11.68,35.05,17.25
		c9.46,5.56,22.25-16.13,26.15-18.92s7.79,1.11,17.25,10.01c9.46,8.9,18.36,6.68,22.25,5.01c3.89-1.67,15.02-17.25,20.59-20.59
		c5.45-3.27,14.65-0.66,15.01-0.56c-0.32-0.23-8.46-6.1-14.45-5.56c-6.12,0.56-17.8,11.68-23.92,17.25
		c-6.12,5.56-20.03-10.57-25.59-15.02c-5.56-4.45-14.47,1.67-25.59,10.01s-11.13,3.89-15.02,2.23c-3.89-1.67-16.69-15.02-21.7-19.47
		c-5.01-4.45-12.24,0.56-15.58,2.23c-3.34,1.67-23.37,27.26-25.59,31.71c-2.23,4.45-6.12,8.35-13.35,4.45s-11.13-27.82-11.13-39.5
		s3.89-17.8,7.23-23.92c3.34-6.12,10.01-10.01,12.24-15.58s-2.78-5.56-5.01-6.12c-2.23-0.56-24.48,0.56-42.28,63.43
		c-17.8,62.87-16.13,56.19-28.37,82.9s-51.19,44.51-56.75,47.29s-6.68,7.79-6.68,11.68s-0.56,17.25,11.68,20.59
		s18.36,22.25,21.7,30.04c3.34,7.79-2.23,36.72-21.14,43.4c-18.92,6.68-33.94-3.34-38.95-6.12c-5.01-2.78-9.46-17.25-8.35-28.93
		c1.11-11.68,11.13-21.7,15.02-26.15s5.01-10.57,5.56-15.58c0.56-5.01-3.89-17.25-9.46-18.92c-5.56-1.67-26.15,0-38.95-7.23
		c-12.8-7.23-15.58-21.7,3.34-41.73c18.92-20.03,18.92-7.79,64.54-45.07s56.75-71.77,79-104.6c22.25-32.83,18.36-77.89,9.46-135.2
		c-8.9-57.31-0.56-75.11-0.56-75.11s1.67-4.45-4.45,9.46c-6.12,13.91-8.35,43.95-4.45,101.81c3.89,57.86-5.56,65.09-15.02,101.81
		s-35.61,58.42-43.95,69.54s-37.28,36.72-63.43,46.73s-43.95,26.71-45.62,28.93s-7.23,21.7-6.12,27.82
		c1.11,6.12,6.12,12.8,1.67,11.13c-4.45-1.67-8.35-2.78-18.92-11.68c-10.57-8.9-27.82-9.46-42.28-9.46
		c-14.47,0-17.25,16.13-17.25,26.15s4.45,8.9,17.8,22.25c13.35,13.35,8.9,22.25,2.78,40.06c-6.12,17.8-20.59,19.47-40.61,18.36
		c-20.03-1.11-26.71-20.03-28.93-26.15c-2.23-6.12-1.11-16.69,2.23-23.92c3.34-7.23,17.25-16.13,27.26-22.25
		c10.01-6.12,9.46-14.47,9.46-28.93s-19.47-17.25-23.92-19.47s-12.8-10.01-13.91-12.8c-1.11-2.78-0.56-7.79,1.67-10.01
		c2.23-2.23,0.56-5.56,24.48,4.45s52.3,7.79,64.54,7.79s16.13-4.45,20.03-9.46c3.89-5.01,2.78-16.13-2.78-26.15
		c-5.56-10.01-29.49-4.45-44.51-6.68c-15.02-2.23-45.07-10.01-57.86-13.91s-13.91,3.34-17.8,7.79s-23.92,23.92-44.51,7.79
		c-20.59-16.13-6.12-46.73-3.89-50.07c2.23-3.34,4.45-20.03-0.56-35.61c-2.62-8.15-7.89-26.72-12.32-42.59
		c-0.01-0.01-0.01-0.02-0.01-0.02c-3.92-14-7.17-25.89-7.38-26.65c-0.01-0.03-0.01-0.04-0.01-0.04s14.16,0.31,15.39,16.06v0.02
		c1.26,15.78,18.24,69.35,27.7,73.24c9.46,3.89,11.68,1.11,25.04,7.79c13.35,6.68,12.8,19.47,16.13,26.71
		c3.34,7.23,33.94,15.58,50.07,20.03c16.13,4.45,47.85,3.89,56.19,3.89s10.01-5.56,14.47-11.13c4.45-5.56,19.47-17.8,31.16-23.37
		c11.68-5.56,22.25-5.01,30.04-6.68c7.79-1.67,10.01-6.68,10.01-6.68c54.52-45.07,55.08-120.73,54.52-133.53
		c-0.56-12.8-25.04-63.43-68.99-90.69c-33.26-20.64-56.7-26.91-66.13-28.73c-2.64-0.51-4.18-0.68-4.53-0.71
		c-0.05-0.01-0.08-0.01-0.08-0.01s-5.7-9.5-0.48-8.27c0.01,0,0.01,0.01,0.02,0.01c0.15,0.04,0.31,0.08,0.46,0.13
		c0.23,0.07,0.48,0.14,0.75,0.21c0.03,0.01,0.05,0.02,0.08,0.02c6.73,1.61,24.05,1.01,43.76,9.54c20.59,8.9,57.31,40.61,76.78,55.08
		c19.47,14.47,22.81,7.79,22.81,7.79c2.78-45.62,17.8-72.88,30.04-91.24c12.24-18.36,18.92-20.59,26.15-26.71
		c7.23-6.12,34.49-38.95,34.49-38.95c-5.01,15.02-5.01,59.53,12.8,99.59c17.8,40.06,20.03,91.8,20.03,99.03s-4.45,32.27-5.56,48.96
		s17.25,35.05,17.25,35.05s16.69-4.45,40.06-1.67c23.37,2.78,53.41,28.37,53.41,28.37s12.8-11.68,23.92-17.8
		c11.13-6.12,45.62-11.13,55.64-11.68c10.01-0.56,12.8-12.24,12.24-26.15c-0.56-13.91-5.56-27.26-42.28-29.49
		c-36.72-2.23-40.06-0.56-76.78-12.24c-36.72-11.68-47.85-52.85-46.73-75.66c1.11-22.81,11.68-39.5,35.05-60.64
		c23.37-21.14,43.4-7.23,54.52,1.67s8.35,33.94,8.35,33.94c-4.45-6.68-20.59-8.9-25.59-8.9s-13.35,9.46-11.68,21.7
		c1.67,12.24,21.14,24.48,47.29,20.03s15.02-53.97,14.47-63.43c-0.56-9.46-12.24-31.16-56.19-35.05
		c-43.95-3.89-68.43-11.68-91.8-42.84s-3.34-60.64-1.11-63.98c2.23-3.34,22.81-16.69,40.06-11.13
		c16.17,5.22,26.96,22.17,28.25,24.27c-1.2-0.55-3.37-1.5-7.1-3.13c-12.8-5.56-16.69,1.67-16.69,10.57
		c0,8.9,23.92,19.47,35.61,16.69c11.68-2.78,10.01-13.91,10.01-22.81s-7.79-18.92-50.08-64.62
		c-41.97-45.35-99.74-76.74-100.65-77.23c-0.01-0.01-0.01-0.01-0.01-0.01s7.37-33.94,32.29-33.67c0.01,0,0.01,0,0.02,0.01
		c3.25,0.03,6.8,0.66,10.68,2.01c0.01,0.01,0.01,0.01,0.01,0.01c33.58,11.76,99.96,79.49,104.96,86.16
		c5.01,6.68,9.46,10.01,15.02,12.24c3.56,1.42,8.03,1.94,13.26,4.3c0.01,0.01,0.01,0.01,0.01,0.01
		c23.38,27.69,43.95,57.44,61.56,89.03c0.01,0.01,0.01,0.01,0.01,0.02c7.29,18.66,30.59,85.38,36.99,101.93
		c6.68,17.25,17.8,73.44,25.04,123.51S1343.47,2022.97,1341.24,2059.13z"/>
	<path class="st0" d="M1239.96,2306.03c-1.07,1.84-2.17,3.72-3.32,5.69c-3.66,6.31-10.15,13.95-16.91,21.11
		C1226.74,2324.12,1233.49,2315.18,1239.96,2306.03z"/>
	<path class="st0" d="M1326.22,2142.03c-3.08,9.25-21.51,50.59-39.22,84.19c14.71-30.54,26.72-62.66,35.7-96.03
		c-1.94,3.12-4.09,6.3-6.49,9.61c-1.26,1.75-2.69,3.42-4.26,5.01c-1.95-1.15-5.04,2.04-5.2,2.21c0.24-0.82,19.69-65.42,28.88-78.79
		c0-0.01,0-0.01,0-0.01c2.61-3.78,4.38-3.45,4.67,3.61v0.02C1341.6,2104.09,1330.11,2130.35,1326.22,2142.03z"/>
	<path class="st0" d="M1191.21,2356.49c-1.13-6.54-4.36-16.12-8.53-21.96c-5.56-7.79-11.13-9.46-29.49-17.25
		c-9.7-4.11-19.71-2.95-26.99-0.93h-0.01c-1.82,0.5-3.47,1.06-4.9,1.6h-0.01c-3.69,1.39-5.94,2.68-5.94,2.68
		c-3.35,1.97-6.21,6.38-8.38,11.84c-2.1,5.26-3.56,11.49-4.2,17.48c0,0,0,0,0,0.01c-0.58,5.37-0.51,10.54,0.34,14.62
		c2.78,13.35,30.04,32.27,47.29,33.94c1.1,0.11,2.22,0.07,3.35-0.09c1.87-0.26,3.8-0.86,5.73-1.74c4.17-1.88,8.39-4.99,12.35-8.61
		c4.8-4.4,9.21-9.55,12.64-14.15c0.01-0.02,0.02-0.03,0.03-0.05c1.21-1.62,2.29-3.18,3.23-4.61c0.98-1.51,1.81-2.88,2.44-4.04v-0.01
		c0.83-1.55,1.32-2.74,1.4-3.41c0.04-0.42,0.06-0.9,0.05-1.43C1191.6,2359.28,1191.46,2357.96,1191.21,2356.49z M1144.29,2365.13
		c-3.38,0-6.12-2.74-6.12-6.12c0-3.38,2.74-6.12,6.12-6.12c3.38,0,6.12,2.74,6.12,6.12
		C1150.41,2362.4,1147.67,2365.13,1144.29,2365.13z"/>
	<path class="st0" d="M790.4,2536.13c0.11,0.08,0.21,0.19,0.3,0.31c0.07,0,0.13,0.01,0.21,0.01
		C790.73,2536.34,790.56,2536.24,790.4,2536.13z M786,2533.16c0.01,0.02,0.03,0.04,0.07,0.09c1.91,1.36,3.55,2.49,4.02,2.69
		C787.77,2534.48,786.12,2533.24,786,2533.16z M790.4,2536.13c0.11,0.08,0.21,0.19,0.3,0.31c0.07,0,0.13,0.01,0.21,0.01
		C790.73,2536.34,790.56,2536.24,790.4,2536.13z M786,2533.16c0.01,0.02,0.03,0.04,0.07,0.09c1.91,1.36,3.55,2.49,4.02,2.69
		C787.77,2534.48,786.12,2533.24,786,2533.16z M1197.73,2354.22c-0.01,0.01-0.03,0.03-0.04,0.04c-0.53,0.52-2.92,2.9-6.06,6.1
		c-5.22,5.32-12.53,12.94-16.86,18.17c-0.01,0.01-0.01,0.01-0.01,0.01c0,0.01,0,0.01-0.01,0.01c-1.49,1.81-2.63,3.33-3.2,4.38
		c-2.34,4.3-11.55,11.07-17.79,15.48c1.87-0.26,3.8-0.86,5.73-1.74c-7.41,6.7-15.01,13.2-22.77,19.48c0.93-0.34,1.79-0.66,2.56-0.96
		c5.56-2.23,22.25-11.68,28.93-17.25c6.68-5.56,8.35-10.01,12.74-18.1c0,0,0-0.01,0.01-0.01c0-0.01,0.01-0.01,0.01-0.01
		c0.9-1.66,2.14-3.71,3.53-5.92c0.01-0.02,0.02-0.03,0.03-0.05c0.76-1.21,1.57-2.48,2.4-3.75c0.01,0,0.01,0,0.01-0.01
		c1.07-1.64,2.18-3.3,3.25-4.9v-0.01c3.82-5.67,7.27-10.55,7.58-11.01C1197.76,2354.21,1197.75,2354.21,1197.73,2354.22z
		 M1120.86,2310.28c-0.01,0.01-0.02,0.02-0.03,0.02c-0.01,0.01-0.01,0.01-0.02,0.01c-4.05,3.32-7.54,6.48-9.9,9.2
		c-5.88,6.75-5.55,10.72-3.93,12.96c-2.1,5.26-3.56,11.49-4.2,17.48c0.69-1.39,1.36-2.82,2.01-4.29c0,0,4.52-6.95,9.24-14.83v-0.01
		c2.61-4.35,5.27-8.98,7.27-12.88h0.01C1125.01,2310.7,1126.41,2305.99,1120.86,2310.28z M1000.63,2496.78
		c11.08,1.04,23.96-0.13,36.84-2.02c2.03-0.29,3.97-0.71,5.81-1.21c0.01,0,0.01-0.01,0.02-0.01c6.8-1.86,12.33-5.01,16.75-8.66h0.01
		c7.81-6.44,12.2-14.44,14.14-19.61c1.11-2.97,2.16-5.32,3.24-7.3C1053,2472.87,1027.34,2485.87,1000.63,2496.78z M921.75,2353.45
		c-11.31-4.27-18.19-8.53-23.67-13.24c-11.33-6.64-19.47-18.11-19.72-18.47l25.59,56.74l-103.48-32.83l-119.06,25.59l-17.04,8.45
		l-53.34,26.47l-60.14,29.84l-10.8,5.36l-3.34,1.66c0,0-4.97-1.88-12.23-4.5c-1.34-0.48-2.75-0.99-4.22-1.51
		c-20.73-7.39-53.42-18.35-51.34-13.12h0.01c0.08,0.22,0.24,0.48,0.47,0.77c0.72,0.93,1.55,1.89,2.47,2.87
		c0.03,0.03,0.06,0.07,0.09,0.1c0.42,0.45,0.87,0.91,1.34,1.36c0.06,0.06,0.11,0.12,0.17,0.17c0.02,0.02,0.03,0.03,0.03,0.03
		c9.21,9.03,26.4,20.22,51.9,32.94c-16.82-9.91-33.08-20.72-48.69-32.35l43.62,7.97c0.31,2.66,1.61,6.25,4.1,10.83
		c0,0,17.3,6.68,18.97,6.12c1.11-0.37,4.68-6.4,6.78-11.49l29.39,5.37l22.62-13.28l-4.02,13.28l142.75-65.65l72.88,10.01
		c0,0,60.64-4.45,61.79-3.34c1.15,1.11,42.25,16.13,42.25,16.13S951.23,2364.58,921.75,2353.45z M813.02,2536.28
		C813.01,2536.28,813.01,2536.28,813.02,2536.28c-4.64,2.61-8.53,4.48-10.33,4.66c-0.26,0.03-0.54,0.03-0.82,0.02
		c-2.99-0.76-5.86-1.86-8.47-3.07c-0.87-0.47-1.7-0.97-2.49-1.45c-0.17-0.11-0.34-0.21-0.51-0.32c-0.11-0.06-0.21-0.12-0.31-0.19
		c-2.31-1.46-3.97-2.7-4.09-2.78c0.01,0.02,0.03,0.04,0.07,0.09c0.15,0.2,0.55,0.71,1.13,1.41c-3.33-1.95-5.75-3.67-6.77-4.28
		c-2.21-1.32,2.6,1.21-2.03-2.72c-0.04-0.03-0.07-0.05-0.07-0.05l-4.51,8.36h-0.01c-38.55-1.71-76.06-7.52-112.14-16.99
		c3.51,5.25,7.82,10.24,13.04,14.19c10.65,8.07,59.17,9.78,95.34,9.78c10.25,0.01,19.52-0.13,26.65-0.29
		c1.41,0.66,2.87,1.08,4.3,1.08c3.73,0,12.64,0.89,25.58,1.06c0.01,0,0.01,0,0.01,0c12.15,0.16,27.86-0.31,46.18-2.73
		c12.79-1.69,22.14-7.89,29.09-15.66C873,2532.08,843.31,2535.45,813.02,2536.28z M786,2533.16c0.01,0.02,0.03,0.04,0.07,0.09
		c1.91,1.36,3.55,2.49,4.02,2.69C787.77,2534.48,786.12,2533.24,786,2533.16z M790.4,2536.13c0.11,0.08,0.21,0.19,0.3,0.31
		c0.07,0,0.13,0.01,0.21,0.01C790.73,2536.34,790.56,2536.24,790.4,2536.13z M786,2533.16c0.01,0.02,0.03,0.04,0.07,0.09
		c1.91,1.36,3.55,2.49,4.02,2.69C787.77,2534.48,786.12,2533.24,786,2533.16z"/>
	<path class="st0" d="M1312.4,1764.93c-8.34-19.98-17.74-39.36-28.18-58.08c7.29,18.66,30.59,85.38,36.99,101.93
		c6.68,17.25,17.8,73.44,25.04,123.51s-2.78,90.69-5.01,126.85c-0.28,4.5-0.58,8.72-0.93,12.72v0.02
		c1.29,32.21-10.19,58.47-14.09,70.16c-3.08,9.25-21.51,50.59-39.22,84.19c14.71-30.54,26.72-62.66,35.7-96.03
		c-1.94,3.12-4.09,6.3-6.49,9.61c-1.26,1.75-2.69,3.42-4.26,5.01c0.56,0.32,1.03,1.01,1.31,2.22c1.28,5.56-4.28,21.14-8.18,28.37
		s-24.48,24.48-38.39,36.72c-13.91,12.24-27.26,26.15-28.93,39.5c-1.67,13.35,2.23,26.71-2.23,38.39
		c-4.45,11.68-3.34,16.13-12.8,28.37c-7.41,9.59-14.14,17.81-17.78,21.73c-1,1.08-1.77,1.84-2.25,2.2
		c-2.2,1.65-7.09,13.58-7.23,13.9c0.08-0.07,0.87-0.76,2.21-1.96c0.02-0.02,0.03-0.03,0.04-0.04c0.01-0.01,0.02-0.02,0.03-0.03
		c0.89-0.8,2.01-1.82,3.3-3.02c-1.87,3.58-4.31,7.47-6.98,11.35c-0.01,0.01-0.02,0.02-0.03,0.03c-4.26,6.2-9.1,12.39-13.1,17.27
		c0,0.01-0.01,0.01-0.01,0.01c-0.01,0-0.01,0.01-0.01,0.01c-4.39,8.09-6.06,12.54-12.74,18.1c-6.68,5.56-23.37,15.02-28.93,17.25
		c-0.77,0.31-1.62,0.62-2.56,0.96c7.77-6.29,15.36-12.78,22.77-19.48c-1.93,0.87-3.86,1.47-5.73,1.74
		c-2.64,1.87-4.75,3.33-5.58,3.99c-2.78,2.23-23.37,10.01-31.16,9.46c-7.79-0.56-13.91-2.78-21.7-11.68
		c-7.79-8.9-2.78-22.81-1.11-30.6c1.39-6.5,5.11-12.61,8.56-19.63c0-0.01,0-0.01,0-0.01c0.65-5.99,2.1-12.22,4.2-17.48
		c-1.62-2.24-1.95-6.2,3.93-12.96c2.36-2.71,5.85-5.88,9.9-9.2c-13.94,10.77-12.7,13.11-24.37,32.56
		c-11.68,19.47-16.13,61.2-17.25,72.33c-1.11,11.13-11.13,28.37-19.47,32.83c-8.35,4.45-22.81,3.89-33.94,1.67
		c-11.13-2.23-27.26-21.14-29.43-43.7c-2.18-22.57,13.85-40.86,23.71-46.98c9.86-6.12,37.43-38.95,44.32-44.49
		c6.89-5.55,0.9-21.71-5.54-29.5c-6.44-7.79-20.82-7.23-30.84,0c-10.01,7.23-30.04,35.05-55.64,53.41
		c-25.59,18.36-52.3,10.01-67.32,5.01c-2.43-0.81-4.77-1.93-6.98-3.22c5.48,4.71,12.37,8.97,23.67,13.24
		c29.49,11.13-3.89,52.3-3.89,52.3s-41.1-15.02-42.25-16.13c-1.15-1.11-61.79,3.34-61.79,3.34l-72.88-10.01l-142.75,65.65
		l4.02-13.28l-22.62,13.28l-29.39-5.37c-2.09,5.08-5.67,11.12-6.78,11.49c-1.67,0.56-18.97-6.12-18.97-6.12
		c-2.49-4.57-3.79-8.17-4.1-10.83l-43.62-7.97c15.62,11.63,31.87,22.44,48.69,32.35c0.01,0.01,0.02,0.01,0.03,0.02
		c0.97,0.48,1.95,0.96,2.94,1.45c31.71,15.58,109.05-25.59,115.47-28.07c6.43-2.47,18.61-4.2,23.62-4.2
		c5.01,0,2.23,13.35,0.56,17.25s-18.92,31.71-18.92,37.83c0,4.38,3.71,19.32,12.55,32.55h0.01c36.08,9.47,73.59,15.28,112.14,16.99
		h0.01l4.51-8.36c-1.2-1.01-3-2.44-5.7-4.46c-13.35-10.01-34.49-38.39-36.72-43.4c-2.23-5.01-10.01-37.83-6.12-58.97
		c3.89-21.14,17.8-24.48,27.26-29.49s18.92,1.11,28.93,5.34c10.01,4.22,26.71,32.49,26.71,32.49s14.47-26.71,23.37-33.38
		c8.9-6.68,19.47-5.56,27.26-3.89c7.79,1.67,12.8,3.89,22.81,24.48c10.01,20.59-1.67,46.18-3.89,58.42
		c-2.23,12.24-37.28,38.95-42.84,43.95c-3.77,3.39-16.7,12.12-26.39,17.59c30.29-0.83,59.98-4.2,88.86-9.89h0.01
		c13.63-15.23,18.03-36.49,20.98-41.64c4.45-7.79,6.12-15.58,21.14-16.69c15.02-1.11,22.25,12.24,35.05,21.7
		c5.57,4.12,13.04,6.23,21.58,7.03c26.71-10.91,52.37-23.91,76.79-38.81c-1.07,1.98-2.13,4.33-3.24,7.3
		c-1.94,5.17-6.33,13.17-14.14,19.61c48.74-26.26,93.23-59.66,132.72-99.69c51.27-51.96,91.52-112.47,119.63-179.85
		c29.1-69.75,43.86-143.84,43.86-220.21C1356.26,1908.77,1341.5,1834.68,1312.4,1764.93z M1236.65,2311.72
		c-3.66,6.31-10.15,13.95-16.91,21.11c7-8.72,13.75-17.65,20.23-26.81C1238.89,2307.87,1237.79,2309.75,1236.65,2311.72z"/>
	<path class="st0" d="M826.61,2544.79c-0.01,0-0.01,0-0.01,0c-13.93,2.17-56.54-1.85-56.54-1.85l0.01-0.01l3.76-6.98h0.01l4.51-8.36
		c0,0,0.02,0.02,0.07,0.05c0.56,0.41,4.48,3.33,7.66,5.6c1.91,1.36,3.55,2.49,4.02,2.69c0.1,0.07,0.2,0.13,0.31,0.19
		c0.11,0.08,0.21,0.19,0.3,0.31c0.06,0.07,0.11,0.14,0.16,0.22c0.61,0.97,1.11,2.62,3.92,4.28c2.28,1.35,6.74,1.06,9.9,0.63
		c2.06-0.29,3.57-0.63,3.57-0.63S840.5,2542.61,826.61,2544.79z"/>
	<path class="st0" d="M398.7,2359.14c1.72,2.54,4.31,5.25,7.34,7.89C403.57,2364.42,401.12,2361.79,398.7,2359.14z M715.34,2312.83
		c-2.06-2.84-4.87-9.37-7.99-17.8c-2.92-3.34-5.97-6.89-9.26-10.57c-18.36-20.59-32.26-23.07-32.26-23.07s-43.96-21.99-56.76-32.01
		c-0.53-0.41-1.13-0.77-1.79-1.07c-3.51-1.59-8.84-1.67-15.09-0.73c-21.24,3.17-53.19,17.95-61.07,24.34
		c-10.63,8.63-62.26,63.45-62.26,63.45s-66.75,29.18-71.39,34.89c-0.75,0.92-1.07,1.96-1.05,3.11v0.03
		c0.04,1.67,0.82,3.56,2.15,5.55c0,0.01,0,0.01,0,0.01c0.01,0.01,0.01,0.01,0.01,0.01h0.01l108.13-65.59l91.8-56.19l38.95,28.37
		l36.16,21.7l3.34,31.16C676.95,2318.4,724.24,2325.07,715.34,2312.83z M921.75,2353.45c-11.31-4.27-18.19-8.53-23.67-13.24
		c-11.33-6.64-19.47-18.11-19.72-18.47l25.59,56.74l-103.48-32.83l-119.06,25.59l-17.04,8.45l-53.34,26.47l-60.14,29.84
		c-4.13-2.9-21.9-4.1-26.43-4.02c-2.78,0.05-4.33,1.7-4.16,5.02c-20.73-7.39-53.42-18.35-51.34-13.12
		c-0.96-0.74-1.93-1.49-2.88-2.24c2.51,2.53,4.52,4.57,5.83,5.89c0.03,0.03,0.06,0.07,0.09,0.1c0.64,0.65,1.09,1.11,1.34,1.36
		c0.06,0.06,0.11,0.12,0.17,0.17c0.02,0.02,0.03,0.03,0.03,0.03l3.2,0.58l43.62,7.97l4.16,0.76l15.57,2.84l10.11,1.85l29.39,5.37
		l22.62-13.28l-4.02,13.28l142.75-65.65l72.88,10.01c0,0,60.64-4.45,61.79-3.34c1.15,1.11,42.25,16.13,42.25,16.13
		S951.23,2364.58,921.75,2353.45z"/>
	<path class="st0" d="M1037.47,2494.76c-12.88,1.89-25.76,3.06-36.84,2.02c-31.57,12.9-64.59,22.88-98.75,29.61h-0.01
		c-6.95,7.77-16.3,13.97-29.09,15.66c-18.32,2.43-34.03,2.89-46.18,2.73c-0.01,0-0.01,0-0.01,0c-13.93,2.17-56.54-1.85-56.54-1.85
		l0.01-0.01c-36.17-0.01-84.69-1.71-95.34-9.78c-5.21-3.95-9.53-8.94-13.04-14.19h-0.01c-48.33-12.69-94.06-31.95-136.22-56.81
		c-0.01-0.01-0.02-0.01-0.03-0.02c-25.49-12.72-42.69-23.91-51.9-32.94c0,0-0.01-0.01-0.03-0.03c-0.06-0.06-0.12-0.12-0.17-0.17
		c-0.47-0.46-0.91-0.91-1.34-1.36c-0.03-0.03-0.06-0.07-0.09-0.1c-1.3-1.32-3.32-3.35-5.83-5.89c0.96,0.75,1.92,1.5,2.88,2.24
		c-2.08-5.23,30.61,5.73,51.34,13.12c-0.17-3.32,1.39-4.97,4.16-5.02c4.52-0.08,22.29,1.12,26.43,4.02l60.14-29.84l53.34-26.47
		l17.04-8.45l119.06-25.59l103.48,32.83l-25.59-56.74c0.25,0.36,8.38,11.83,19.72,18.47c-8.82-7.57-14-16.27-28.07-27.93
		c-22.81-18.92-57.31-2.23-65.65,4.45s-35.61,10.01-56.19,7.23c-16.9-2.29-27.43-13.57-40.81-28.93c3.12,8.43,5.93,14.97,7.99,17.8
		c8.9,12.24-38.39,5.56-38.39,5.56l-3.34-31.16l-36.16-21.7l-38.95-28.37l-91.8,56.19l-108.13,65.59h-0.01c0,0,0-0.01-0.01-0.01
		c0,0,0,0,0-0.01c-1.32-1.99-2.11-3.87-2.15-5.55v-0.03c-2.14-4.9-5.93-12.09-11.56-17.72c-0.33-0.33-0.63-0.71-0.88-1.12
		c0-0.01-0.01-0.01-0.01-0.01c-7.44-11.56,7.74-55.14,7.74-55.14s118.33-81.16,135.57-86.72c17.25-5.56,125.74-22.81,134.08-11.13
		c8.35,11.68,18.92,27.82,20.59,32.83c0.37,1.09,1.72,5.79,3.74,12.61c-1.83-6.3-9.86-38.21-29.33-72.7s-37.83-36.72-47.29-42.84
		c-9.46-6.12-33.38-12.8-70.1-7.23c-36.72,5.56-61.76,29.49-70.11,36.16s-23.91,18.36-33.37,17.25
		c-9.46-1.11-10.57-11.13-17.25-21.14c-6.68-10.01-26.44-3.49-26.44-3.49s-1.94-3.18-1.38-9.86c0.56-6.68,1.11-28.93-22.25-36.16
		c-23.37-7.23-30.04,11.13-36.72,21.7s-1.11,30.04-1.67,38.95c-0.56,8.9-10.57,12.24-22.81,10.57c-2.57-0.35-4.58-0.82-6.14-1.35
		c-0.01,0-0.01,0-0.01,0c-0.02,0-0.04-0.01-0.07-0.02h-0.01c-0.01,0-0.01-0.01-0.01-0.01h-0.01c-0.01,0-0.01-0.01-0.01-0.01
		c-1.62-0.99-19.24-19.92-16.56-41.46c2.78-22.25,21.7-40.06,40.06-42.28c18.36-2.23,16.13,2.78,39.5,3.34
		c23.37,0.56,43.4,2.78,55.64-5.56c12.24-8.35,33.94-20.03,41.73-23.92c7.79-3.89,42.28-2.23,48.4-4.45
		c6.12-2.23,16.69,0,14.47-23.37c-2.23-23.37,3.34-21.14,3.34-30.04s12.24-59.53-6.12-72.88c-18.36-13.35-74-66.76-72.33-85.68
		c1.67-18.92-6.96-24.16,10.99-21.81l-26.39-22.62c-1.19,7.33-4.29,15.01-11.86,17.17c-15.58,4.45-36.72-2.23-51.19,4.45
		c-14.47,6.68-41.73,18.36-42.28,48.4c-0.56,30.04,17.25,33.38,21.7,32.83c4.45-0.56,23.92-2.23,39.5-8.9
		c15.58-6.68,21.14-10.01,21.7-4.45c0.56,5.56,2.23,26.15,1.67,35.61s-2.78,34.49-1.67,38.95c1.11,4.45-7.04,2.49-19.66,0.68
		c-12.61-1.8-44.56,9.1-50.56,13.11c-6,4.01-8.23,8.46-13.79,6.24s-23.37-9.46-28.93-11.13s-30.04,5.56-33.38,0
		s-5.56-27.26-5.56-34.49s7.23-56.19,16.13-61.2c8.9-5.01,16.13-3.34,13.91,11.68c-2.23,15.02-6.12,28.93-6.68,32.27
		c-0.56,3.34-1.67,10.57,0.56,17.25c2.23,6.68,3.89,0.56,3.89-3.34c0-3.89,3.34-17.8,6.68-22.25c3.34-4.45,28.37-22.81,26.15-52.85
		s-11.13-56.19-16.13-63.43c-3.81-5.5,0.1-26.73,6.34-40.76c-35.76,73.42-55.86,156.01-55.86,243.28c0,5.34,0.08,10.65,0.23,15.95
		c-2.05-13.41-4.33-28.43-6.35-45.44c-5.01-42.28,9.46-80.67,17.25-120.17c4.19-21.26,13.7-55.25,24.71-85.41
		c-2.21,4.91-4.36,9.86-6.44,14.85c-29.1,69.75-43.86,143.84-43.86,220.21c0,76.37,14.76,150.46,43.86,220.21
		c28.11,67.38,68.36,127.88,119.63,179.85s110.98,92.77,177.46,121.28c68.84,29.51,141.97,44.48,217.35,44.48
		s148.51-14.97,217.35-44.48c9.46-4.06,18.79-8.36,27.97-12.92C1041.44,2494.06,1039.5,2494.47,1037.47,2494.76z M370.62,1991.55
		c4.12-4.15,15.91-6.97,20.74-7.59c4.82-0.61,15.21,1.73,20.77,4.51c5.56,2.78,8.35,12.24,5.56,10.57
		c-2.78-1.67-16.69-5.56-21.7-5.56c-8.35,0-16.13,1.11-20.59,2.78c-4.45,1.67-8.35,5.01-10.57,5.01S366.5,1995.71,370.62,1991.55z
		 M309.75,2207.68c-0.33-0.72-0.61-1.5-0.85-2.34C309.95,2207.93,310.38,2209.07,309.75,2207.68z M340.75,2250.8
		c-13.34-9.66-27.13-37.9-33.06-52.05c-0.62-5.29-0.81-11.14-1.83-15.54c-1.67-7.23,9.46-10.01,18.36-10.01
		c8.9,0,19.47,9.46,28.37,16.69c8.9,7.23,30.04,16.69,40.61,16.13s30.6-12.24,41.17-13.91c10.57-1.67,25.04-6.68,34.48-12.53
		c9.45-5.86,14.48-9.72,16.7-9.72s20.03-8.35,33.38-11.13c13.35-2.78,12.8-3.34,12.8,7.23s-27.26,22.25-37.28,28.37
		c-10.01,6.12-30.6,16.69-40.06,23.37s-32.27,25.04-49.41,33.1C387.85,2258.87,356.48,2262.21,340.75,2250.8z M398.7,2359.14
		c2.43,2.65,4.87,5.29,7.34,7.89C403.01,2364.38,400.42,2361.68,398.7,2359.14z M441.61,2386.83c-5.56-2.78-5.56-21.14-2.23-25.04
		s95.14-77.33,102.12-82.41c6.99-5.08,44.76-24.96,51.62-26.8c6.86-1.84,6.49,0.17,4.26,5.73c-2.23,5.56-19.47,12.8-27.26,17.25
		c-7.79,4.45-35.05,30.04-42.28,35.05c-7.23,5.01-3.34,15.02-3.34,22.81s2.23,19.47,15.58,20.03c13.35,0.56,23.37-7.79,27.82-13.91
		s61.2-55.08,65.09-57.31c3.89-2.23,15.58-3.89,23.37,3.34c7.79,7.23,8.9,11.13,1.11,45.62c-7.79,34.49-42.28,61.2-42.28,61.2
		l-0.77,2.54c-17.71,11.36-35.91,19.36-47.08,22.5c-17.8,5.01-30.04-1.11-40.61-7.79c-10.57-6.68-30.04-15.02-38.92-20.03
		c-8.87-5.01-16.71,1.67-23.44,2.78C457.65,2393.51,447.17,2389.61,441.61,2386.83z"/>
	<path class="st0" d="M550.2,2443.22c-2.09,5.08-5.67,11.12-6.78,11.49c-1.67,0.56-18.97-6.12-18.97-6.12
		c-2.49-4.57-3.79-8.17-4.1-10.83c-0.03-0.26-0.06-0.51-0.06-0.75c-0.17-3.32,1.39-4.97,4.16-5.02c4.52-0.08,22.29,1.12,26.43,4.02
		c0.49,0.34,0.79,0.71,0.85,1.1C551.93,2438.34,551.25,2440.66,550.2,2443.22z"/>
	<path class="st0" d="M715.34,2312.83c-2.06-2.84-4.87-9.37-7.99-17.8c-7.4-20.02-16.56-50.72-21.64-67.98
		c-0.01-0.02-0.01-0.05-0.02-0.08c-2.01-6.82-3.37-11.52-3.74-12.61c-1.67-5.01-12.24-21.14-20.59-32.83
		c-8.35-11.68-116.84,5.56-134.08,11.13c-17.25,5.56-135.57,86.72-135.57,86.72s-15.19,43.58-7.74,55.14c0,0,0.01,0.01,0.01,0.01
		c0.26,0.41,0.56,0.79,0.88,1.12c5.63,5.63,9.42,12.82,11.56,17.72v0.03c1.39,3.14,2.09,5.35,2.15,5.55c0,0.01,0,0.01,0,0.01
		c0.01,0.01,0.01,0.01,0.01,0.01h0.01l108.13-65.59l91.8-56.19l38.95,28.37l36.16,21.7l3.34,31.16
		C676.95,2318.4,724.24,2325.07,715.34,2312.83z M394.32,2328.41c-0.96-0.79-3.34-8.9-2.23-12.24c1.11-3.34,9.46-10.57,13.35-12.8
		c3.89-2.23,48.4-29.49,51.74-33.38s28.93-20.03,32.27-22.25c3.34-2.23,6.68-1.11,6.12,1.11c-0.56,2.23-51.74,56.75-57.31,61.2
		s-20.61,16.69-25.6,18.36S400.44,2333.42,394.32,2328.41z"/>
	<path class="st0" d="M685.69,2226.97c-2.01-6.82-3.37-11.52-3.74-12.61c-1.67-5.01-12.24-21.14-20.59-32.83
		c-8.35-11.68-116.84,5.56-134.08,11.13c-17.25,5.56-135.57,86.72-135.57,86.72s-15.19,43.58-7.74,55.14c0,0,0.01,0.01,0.01,0.01
		c3.24,3.09,4.54,3.25,4.54,3.25l-0.32-13.26l5.01-25.59l65.65-55.64l122.28-16.32c0,0,4.26,0.25,11.05,0.61
		c4.19,0.22,9.36,0.47,15.09,0.73c31.17,1.41,79.04,2.9,78.43-1.26C685.7,2227.03,685.7,2227,685.69,2226.97z"/>
	<path class="st0" d="M433.82,1770.94c0,0,0.88,7.35-0.38,15.1l26.39,22.62C477.77,1811,433.82,1770.94,433.82,1770.94z
		 M391.71,1597c-10.45,11.22-20.41,22.81-29.87,34.77c-11.81,18.53-26.63,40.87-38.11,54.51c-12.57,20.45-23.84,41.74-33.78,63.79
		c-11.01,30.15-20.52,64.15-24.71,85.41c-7.79,39.5-22.25,77.89-17.25,120.17c2.01,17.01,4.3,32.03,6.35,45.44
		c-0.15-5.3-0.23-10.62-0.23-15.95c0-87.27,20.1-169.86,55.86-243.28c0.67-1.51,1.37-2.94,2.09-4.25c1.4-2.55,2.87-4.67,4.36-6.17
		c9.46-9.46,17.25-12.24,25.04-9.46c7.79,2.78,16.69,6.68,15.58,16.13c-1.11,9.46-2.78,17.25-10.01,17.25
		c-7.23,0-14.47,0-16.69-1.67c-2.23-1.67-3.34,5.56-1.11,11.13s21.14,15.58,31.71,9.46c10.57-6.12,30.04-17.25,24.48-43.4
		s-22.25-47.29-15.58-77.89c0.82-3.77,1.79-7.53,2.86-11.17c5.42-18.42,13.48-33.61,18.91-30.25c1.07,0.66,2.04,2.04,2.87,4.27
		c0.86,2.33,1.57,5.58,2.08,9.89c2.12,18.19,3.16,2.14,3.67-16.24c0.21-7.64,0.33-15.67,0.4-21.83
		C397.61,1590.75,394.64,1593.86,391.71,1597z"/>
</g>
<text transform="matrix(1 0 0 1 1510.1592 2062.8789)"><tspan x="0" y="0" class="st1 st2">FAITH </tspan><tspan x="811.98" y="0" class="st3 st2">FOUNDATION</tspan></text>
</svg>
